<svg xmlns="http://www.w3.org/2000/svg" xmlns:xlink="http://www.w3.org/1999/xlink" viewBox="0 0 1536 1536">
<defs><style>.base{isolation:isolate;}.circle{fill:#9CDABC;}.shape{fill:#fff;}</style></defs>
<g class="base">
<rect class="circle" width="1536" height="1536" rx="768"/>
<path class="shape" d="M422.35,725l.95-.26c20.27-5.12,32.39-19.45,32.39-38.34,0-24.34-19-40.06-48.41-40.06h-56.8V777.66h18.46V728.21h33.28l36.16,49.45h23.54l0,0h0Zm-53.41-13.79V663.73h37.22c18.19,0,29.09,7.44,30.39,20.5.08.86.13,1.8.13,2.68,0,14.73-12.05,24.3-30.69,24.3Zm175.49,66.6H526V646.46h18.47Zm164.65-55.48H640.21v55.48H621.72V646.46h95.52v17.4h-77v41.32h68.87Zm162.11,55.48H781.13V646.46h18.45V760.39h71.61Zm337.56-131.35h17.68V777.81h-18.52V678l-43.38,65.17-1.25,1.87-44.66-66.82v99.59h-18.09V646.46h17.65l45.28,67.78Zm188.87,131.35h-97V646.46h96.06v17.23h-77.62V703h69.46v17.15h-69.46v40.43h78.53ZM972,645.58,912.1,777.81h19.6l15-34.38h65.89l14.89,34.38h20.36L988,645.58Zm-18.08,81.59L979.77,668l25.78,59.15ZM1118,871.88h279.58V881H1118Zm-967,0H452.57V881H150.92Zm396.36-.56c12.5,3.06,19,7.52,19,17.41,0,11.15-8.71,17.75-21.13,17.75A36.45,36.45,0,0,1,520.48,897l6.26-7.44c5.66,4.9,11.32,7.68,18.67,7.68,6.42,0,10.48-3,10.48-7.53,0-4.29-2.37-6.57-13.36-9.11-12.58-3-19.69-6.76-19.69-17.74,0-10.32,8.45-17.24,20.21-17.24a32.76,32.76,0,0,1,21.46,7.44l-5.59,7.85c-5.31-4-10.63-6.07-16-6.07-6.08,0-9.63,3.12-9.63,7.09C533.24,866.59,536,868.61,547.28,871.32Zm93.14-25h8.77l14.53,44,14.12-43.86h10.9L668.13,906h-9l-14.53-42.49L630.1,906h-9l-20.63-59.56h11.26l14.1,43.86Zm131.47,9.46H738.44v15.4h29.65v9.28H738.44v15.88h33.87v9.3H728V846.48h43.85Zm63.46,49.86h-22V846.48h22c18.6,0,31.44,12.76,31.44,29.5S854,905.63,835.35,905.63Zm0-49.69H823.7v40.21h11.65c12.42,0,20.53-8.35,20.53-20S847.77,855.94,835.35,855.94Zm116.55-.17H918.43v15.4h29.66v9.28H918.43v15.88h33.88v9.3H908V846.48H951.9Zm82.73-9.29h10.22v59.15h-8.71l-32.62-42.08v42.08H993.3V846.48h9.63l31.7,40.91Zm-833.18-217a76,76,0,1,0,88.36,75.21c0-41.52-35.59-59.35-59.64-59.35-45.82,0-52.54,43.29-52.73,49.09h1.67c.76-4.78,10.6-35.79,42.65-35.79,27,0,49,18.89,49,46.05a56.7,56.7,0,0,1-56.63,56.64c-28.88,0-58.1-21.6-58.1-62.87,0-31.21,17.49-56.14,45.8-67.33l-.35-1.65Z"/>
</g></svg>